<svg id="Layer_1" data-name="Layer 1" xmlns="http://www.w3.org/2000/svg" viewBox="0 0 642.22 117.39">
  <defs>
    <style>
      .cls-1 {
        fill: #ffcd05;
      }

      .cls-2 {
        fill: #231f20;
      }
    </style>
  </defs>
  <path class="cls-1" d="M313.07.85H243.6L222.66,21.78V91.25l20.94,20.94h69.47L334,91.25V70.5l-7-7H292.32v7h-28v-28h28v6.86H327l7-6.86V21.79Z"/>
  <path class="cls-1" d="M104.29.85H76.51l-6.86,7V35.67L34.83.85H7l-7,7v97.25l7,7H34.83l6.85-7V77.35l34.83,34.83h27.78l7-7V7.89Z"/>
  <path class="cls-1" d="M153,112.18h28l6.85-7V84.4l34.83-34.83V7.89l-7-7H187.84l-6.85,7V21.78L166.91,35.67,153,21.78V7.89l-6.85-7H118.37l-7,7V49.57L146.16,84.4v20.74Z"/>
  <path class="cls-2" d="M334,.6V0h3.23V.6H336V3.83h-.72V.6Zm4.9-.6,1,2.75,1-2.75h1.07V3.83h-.71V.72L340.1,3.83h-.6L338.43.72V3.83h-.72V0h1.19Z"/>
  <g>
    <path d="M347.86,40.28h6.28c7.21,0,11.47,3.89,11.47,11.68s-4.26,11.86-11.26,11.86h-6.49Zm6,20.16c4.74,0,7.46-2.69,7.46-8.48s-2.72-8.29-7.46-8.29H352V60.44Z"/>
    <path d="M368.83,55c0-5.75,4-9.29,8.15-9.29,4.78,0,7.3,3.46,7.3,8.4a11,11,0,0,1-.18,2H372.88c.34,3.14,2.36,4.93,5.21,4.93a7.5,7.5,0,0,0,4.1-1.29l1.41,2.58a10.93,10.93,0,0,1-6.06,1.92C372.66,64.26,368.83,60.83,368.83,55Zm11.87-1.7c0-2.72-1.21-4.38-3.63-4.38-2.06,0-3.88,1.54-4.24,4.38Z"/>
    <path d="M388.25,46.14h3.4L392,48h.12a8.55,8.55,0,0,1,5.33-2.32c4.42,0,6.95,3.54,6.95,9,0,6-3.61,9.55-7.54,9.55a7.06,7.06,0,0,1-4.55-2l.13,2.94v5.57h-4.15Zm11.85,8.61c0-3.52-1.15-5.61-3.85-5.61a5.57,5.57,0,0,0-3.85,2v8.23a5.5,5.5,0,0,0,3.54,1.47C398.3,60.83,400.1,58.76,400.1,54.75Z"/>
    <path d="M407.17,59.07c0-3.78,3.14-5.76,10.4-6.53-.06-1.9-.82-3.49-3.21-3.49a9.75,9.75,0,0,0-5,1.74L407.86,48a13.84,13.84,0,0,1,7.26-2.32c4.42,0,6.59,2.72,6.59,7.65V63.82h-3.39l-.32-2h-.12a8.54,8.54,0,0,1-5.48,2.39A5,5,0,0,1,407.17,59.07Zm10.4,0v-4c-4.8.61-6.4,1.86-6.4,3.65,0,1.56,1.07,2.24,2.55,2.24S416.26,60.3,417.57,59.09Z"/>
    <path d="M426.7,46.14h3.4l.31,3.16h.12c1.26-2.31,3.13-3.59,5-3.59a4.56,4.56,0,0,1,2,.36l-.72,3.6a6.07,6.07,0,0,0-1.81-.29c-1.41,0-3.11,1-4.18,3.66V63.82H426.7Z"/>
    <path d="M440.74,57.86V49.44h-2.52V46.33l2.74-.19.49-4.82h3.44v4.82h4.51v3.3h-4.51v8.42c0,2.08.81,3.1,2.51,3.1a5.6,5.6,0,0,0,1.84-.4l.7,3a11.31,11.31,0,0,1-3.61.65C442.26,64.26,440.74,61.68,440.74,57.86Z"/>
    <path d="M453.12,46.14h3.4l.32,2.42H457c1.5-1.57,3.21-2.85,5.43-2.85a4.76,4.76,0,0,1,4.88,3.17c1.69-1.8,3.44-3.17,5.69-3.17,3.73,0,5.45,2.56,5.45,7V63.82h-4.14V53.27c0-2.91-.87-4-2.72-4-1.13,0-2.34.72-3.7,2.2V63.82h-4.15V53.27c0-2.91-.86-4-2.72-4-1.1,0-2.33.72-3.7,2.2V63.82h-4.15Z"/>
    <path d="M482.3,55c0-5.75,4-9.29,8.15-9.29,4.78,0,7.3,3.46,7.3,8.4a10.16,10.16,0,0,1-.18,2H486.35c.34,3.14,2.36,4.93,5.21,4.93a7.5,7.5,0,0,0,4.1-1.29l1.41,2.58A10.93,10.93,0,0,1,491,64.26C486.13,64.26,482.3,60.83,482.3,55Zm11.87-1.7c0-2.72-1.21-4.38-3.63-4.38-2.06,0-3.87,1.54-4.24,4.38Z"/>
    <path d="M501.72,46.14h3.4l.31,2.39h.12c1.58-1.54,3.38-2.82,5.8-2.82,3.79,0,5.44,2.56,5.44,7V63.82h-4.14V53.27c0-2.91-.84-4-2.75-4-1.56,0-2.58.76-4,2.2V63.82h-4.15Z"/>
    <path d="M522.5,57.86V49.44H520V46.33l2.73-.19.49-4.82h3.45v4.82h4.5v3.3h-4.5v8.42c0,2.08.8,3.1,2.5,3.1a5.49,5.49,0,0,0,1.84-.4l.71,3a11.42,11.42,0,0,1-3.61.65C524,64.26,522.5,61.68,522.5,57.86Z"/>
    <path d="M540.41,46.33l2.59-.19h7.38v3.3h-10Zm2.37-2c0-3.66,1.69-6.34,5.86-6.34a9.16,9.16,0,0,1,3.24.61l-.79,3.1a5,5,0,0,0-1.92-.42c-1.46,0-2.24.93-2.24,3V63.82h-4.15Z"/>
    <path d="M552,55c0-5.89,4-9.29,8.41-9.29s8.41,3.4,8.41,9.29-4,9.26-8.41,9.26S552,60.86,552,55Zm12.56,0c0-3.54-1.56-5.9-4.15-5.9s-4.15,2.36-4.15,5.9,1.56,5.87,4.15,5.87S564.52,58.54,564.52,55Z"/>
    <path d="M572.89,46.14h3.4l.32,3.16h.11c1.26-2.31,3.13-3.59,5-3.59a4.59,4.59,0,0,1,2,.36l-.72,3.6a6.09,6.09,0,0,0-1.82-.29c-1.41,0-3.11,1-4.17,3.66V63.82h-4.15Z"/>
    <path d="M594.14,57.86V49.44h-2.52V46.33l2.73-.19.49-4.82h3.44v4.82h4.51v3.3h-4.51v8.42c0,2.08.81,3.1,2.51,3.1a5.6,5.6,0,0,0,1.84-.4l.71,3a11.43,11.43,0,0,1-3.62.65C595.65,64.26,594.14,61.68,594.14,57.86Z"/>
    <path d="M606.51,38.4h4.15V45l-.17,3.41a8.15,8.15,0,0,1,5.66-2.68c3.78,0,5.44,2.56,5.44,7V63.82h-4.15V53.27c0-2.91-.83-4-2.75-4-1.55,0-2.58.76-4,2.2V63.82h-4.15Z"/>
    <path d="M625.44,55c0-5.75,4-9.29,8.15-9.29,4.78,0,7.3,3.46,7.3,8.4a11,11,0,0,1-.18,2H629.48c.35,3.14,2.36,4.93,5.21,4.93a7.53,7.53,0,0,0,4.11-1.29l1.41,2.58a11,11,0,0,1-6.06,1.92C629.27,64.26,625.44,60.83,625.44,55Zm11.86-1.7c0-2.72-1.21-4.38-3.63-4.38-2.06,0-3.87,1.54-4.23,4.38Z"/>
    <path d="M347.86,83.48h7.41c5.23,0,9.1,1.82,9.1,7.26,0,5.25-3.88,7.63-8.95,7.63H352V107h-4.17ZM355.07,95c3.51,0,5.18-1.4,5.18-4.29s-1.82-3.92-5.32-3.92H352V95Z"/>
    <path d="M368.45,89.34h3.4l.31,3.16h.12c1.26-2.31,3.13-3.59,5-3.59a4.63,4.63,0,0,1,2,.36l-.72,3.6a6.09,6.09,0,0,0-1.82-.29c-1.41,0-3.11,1-4.17,3.66V107h-4.15Z"/>
    <path d="M380.35,98.2c0-5.89,4-9.29,8.41-9.29s8.41,3.4,8.41,9.29-4,9.26-8.41,9.26S380.35,104.06,380.35,98.2Zm12.56,0c0-3.54-1.56-5.9-4.15-5.9s-4.15,2.36-4.15,5.9,1.56,5.87,4.15,5.87S392.91,101.74,392.91,98.2Z"/>
    <path d="M401.11,101.06V92.64h-2.52V89.53l2.73-.19.49-4.82h3.45v4.82h4.5v3.3h-4.5v8.42c0,2.08.8,3.1,2.5,3.1a5.55,5.55,0,0,0,1.84-.4l.71,3a11.43,11.43,0,0,1-3.62.65C402.62,107.46,401.11,104.88,401.11,101.06Z"/>
    <path d="M411.74,98.2c0-5.75,4-9.29,8.15-9.29,4.78,0,7.3,3.46,7.3,8.4a10.16,10.16,0,0,1-.18,2H415.79c.34,3.14,2.36,4.93,5.21,4.93a7.5,7.5,0,0,0,4.1-1.29l1.42,2.58a11,11,0,0,1-6.07,1.92C415.57,107.46,411.74,104,411.74,98.2Zm11.87-1.7c0-2.72-1.21-4.38-3.63-4.38-2.06,0-3.87,1.54-4.23,4.38Z"/>
    <path d="M430,98.2c0-5.89,4.16-9.29,8.86-9.29a7.57,7.57,0,0,1,5.17,2l-2,2.69a4.34,4.34,0,0,0-2.94-1.29c-2.85,0-4.82,2.36-4.82,5.9s1.94,5.87,4.69,5.87a5.82,5.82,0,0,0,3.66-1.52l1.68,2.73a8.72,8.72,0,0,1-5.77,2.18C433.7,107.46,430,104.06,430,98.2Z"/>
    <path d="M448.05,101.06V92.64h-2.52V89.53l2.74-.19.49-4.82h3.44v4.82h4.51v3.3H452.2v8.42c0,2.08.81,3.1,2.5,3.1a5.61,5.61,0,0,0,1.85-.4l.7,3a11.31,11.31,0,0,1-3.61.65C449.56,107.46,448.05,104.88,448.05,101.06Z"/>
    <path d="M460,83.9a2.57,2.57,0,1,1,2.57,2.35A2.37,2.37,0,0,1,460,83.9Zm.48,5.44h4.15V107h-4.15Z"/>
    <path d="M468.69,98.2c0-5.89,4-9.29,8.41-9.29s8.41,3.4,8.41,9.29-4,9.26-8.41,9.26S468.69,104.06,468.69,98.2Zm12.56,0c0-3.54-1.56-5.9-4.15-5.9S473,94.66,473,98.2s1.55,5.87,4.14,5.87S481.25,101.74,481.25,98.2Z"/>
    <path d="M489.62,89.34H493l.32,2.39h.11c1.59-1.54,3.39-2.82,5.81-2.82,3.78,0,5.44,2.56,5.44,7V107h-4.15V96.47c0-2.91-.83-4-2.75-4-1.55,0-2.57.76-4,2.2V107h-4.15Z"/>
    <path d="M515.82,98.2c0-5.89,4-9.29,8.41-9.29s8.41,3.4,8.41,9.29-4,9.26-8.41,9.26S515.82,104.06,515.82,98.2Zm12.55,0c0-3.54-1.55-5.9-4.14-5.9s-4.15,2.36-4.15,5.9,1.56,5.87,4.15,5.87S528.37,101.74,528.37,98.2Z"/>
    <path d="M534.93,89.53l2.6-.19h7.38v3.3h-10Zm2.38-2c0-3.67,1.68-6.35,5.86-6.35a9.16,9.16,0,0,1,3.24.61l-.79,3.1a5,5,0,0,0-1.92-.42c-1.47,0-2.24.93-2.24,3V107h-4.15Z"/>
    <path d="M555.58,83.48H563c5.23,0,9.1,1.82,9.1,7.26,0,5.25-3.89,7.63-9,7.63h-3.38V107h-4.17ZM562.79,95c3.51,0,5.18-1.4,5.18-4.29s-1.83-3.92-5.32-3.92h-2.9V95Z"/>
    <path d="M574.21,98.2c0-5.75,4-9.29,8.15-9.29,4.78,0,7.3,3.46,7.3,8.4a11,11,0,0,1-.18,2H578.26c.34,3.14,2.36,4.93,5.21,4.93a7.53,7.53,0,0,0,4.1-1.29l1.41,2.58a10.93,10.93,0,0,1-6.06,1.92C578,107.46,574.21,104,574.21,98.2Zm11.86-1.7c0-2.72-1.21-4.38-3.62-4.38-2.06,0-3.88,1.54-4.24,4.38Z"/>
    <path d="M593.89,101.06V92.64h-2.52V89.53l2.73-.19.49-4.82H598v4.82h4.51v3.3H598v8.42c0,2.08.81,3.1,2.51,3.1a5.6,5.6,0,0,0,1.84-.4l.71,3a11.43,11.43,0,0,1-3.62.65C595.4,107.46,593.89,104.88,593.89,101.06Z"/>
    <path d="M604.15,105l1.93-2.63a7.8,7.8,0,0,0,4.88,2c1.93,0,2.83-.9,2.83-2.11,0-1.49-1.91-2.15-3.8-2.87-2.32-.87-5-2.2-5-5.15s2.48-5.29,6.44-5.29A9.52,9.52,0,0,1,617.34,91l-1.9,2.55A6.61,6.61,0,0,0,611.56,92c-1.78,0-2.62.85-2.62,1.95,0,1.4,1.79,1.93,3.7,2.64,2.39.89,5.07,2,5.07,5.34,0,3-2.4,5.49-6.87,5.49A11,11,0,0,1,604.15,105Z"/>
  </g>
</svg>
