<svg id="Layer_1" data-name="Layer 1" xmlns="http://www.w3.org/2000/svg" viewBox="0 0 341.89 112.19">
  <defs>
    <style>
      .cls-1 {
        fill: #ffcd05;
      }

      .cls-2 {
        fill: #231f20;
      }
    </style>
  </defs>
  <path class="cls-1" d="M313.07.85H243.6L222.66,21.78V91.25l20.94,20.94h69.47L334,91.25V70.5l-7-7H292.32v7h-28v-28h28v6.86H327l7-6.86V21.79Z"/>
  <path class="cls-1" d="M104.29.85H76.51l-6.86,7V35.67L34.83.85H7l-7,7v97.25l7,7H34.83l6.85-7V77.35l34.83,34.83h27.78l7-7V7.89Z"/>
  <path class="cls-1" d="M153,112.18h28l6.85-7V84.4l34.83-34.83V7.89l-7-7H187.84l-6.85,7V21.78L166.91,35.67,153,21.78V7.89l-6.85-7H118.37l-7,7V49.57L146.16,84.4v20.74Z"/>
  <path class="cls-2" d="M334,.6V0h3.23V.6H336V3.83h-.72V.6Zm4.9-.6,1,2.75,1-2.75h1.07V3.83h-.71V.72L340.1,3.83h-.6L338.43.72V3.83h-.72V0h1.19Z"/>
</svg>
