<?xml version="1.0" encoding="UTF-8"?>
<svg xmlns="http://www.w3.org/2000/svg" viewBox="0 0 342 112.2">
  <defs>
    <style>
      .cls-1 {
        fill: #ffffff;
      }

      .cls-2 {
        fill: #231f20;
      }
    </style>
  </defs>
  <g id="Layer_1" data-name="Layer 1"/>
  <g id="Layer_2" data-name="Layer 2">
    <g id="Layer_1-2" data-name="Layer 1" focusable="false">
      <g id="nyc">
        <path class="cls-1" d="M313.1,.8h-69.5l-20.9,20.9V91.2l20.9,20.9h69.5l20.9-20.8v-20.8l-7-7h-34.6v7h-28v-28h28v6.9h34.6l7-6.9V21.8L313.1,.8Z"/>
        <path class="cls-1" d="M104.3,.8h-27.8l-6.9,7v27.8L34.8,.8H7L0,7.8V105.1l7,7h27.8l6.9-7v-27.7l34.8,34.8h27.8l7-7V7.9l-7-7.1Z"/>
        <path class="cls-1" d="M153,112.2h28l6.9-7v-20.8l34.8-34.8V7.9l-7-7h-27.8l-6.9,7v13.9l-14.1,13.9-13.9-13.9V7.9l-6.9-7h-27.8l-7,7V49.6l34.8,34.8v20.7l6.9,7.1Z"/>
        <path class="cls-2" d="M334,.6V0h3.2V.6h-1.2V3.8h-.7V.6h-1.3Zm4.9-.6l1,2.8,1-2.8h1.1V3.8h-.7V.7l-1.1,3.1h-.6l-1.1-3.1V3.8h-.7V0h1.1Z"/>
      </g>
    </g>
  </g>
</svg>
