<?xml version="1.0" encoding="utf-8"?>
<!-- Generator: Adobe Illustrator 26.2.1, SVG Export Plug-In . SVG Version: 6.00 Build 0)  -->
<svg version="1.1" id="Layer_1" focusable="false" xmlns="http://www.w3.org/2000/svg" xmlns:xlink="http://www.w3.org/1999/xlink"
	 x="0px" y="0px" viewBox="0 0 1920 1080" style="enable-background:new 0 0 1920 1080;" xml:space="preserve">
<style type="text/css">
	.st0{fill:#FFCD05;}
	.st1{fill:#231F20;}
</style>
<path class="st0" d="M313.1,0.8h-69.5l-20.9,20.9v69.5l20.9,20.9h69.5L334,91.3V70.5l-7-7h-34.6v7h-28v-28h28v6.9H327l7-6.9V21.8
	L313.1,0.8z"/>
<path class="st0" d="M104.3,0.8H76.5l-6.9,7v27.8L34.8,0.8H7l-7,7v97.3l7,7h27.8l6.9-7V77.4l34.8,34.8h27.8l7-7V7.9L104.3,0.8z"/>
<path class="st0" d="M153,112.2h28l6.9-7V84.4l34.8-34.8V7.9l-7-7h-27.8l-6.9,7v13.9l-14.1,13.9L153,21.8V7.9l-6.9-7h-27.8l-7,7
	v41.7l34.8,34.8v20.7L153,112.2z"/>
<path class="st1" d="M334,0.6V0h3.2v0.6H336v3.2h-0.7V0.6L334,0.6L334,0.6z M338.9,0l1,2.8l1-2.8h1.1v3.8h-0.7V0.7l-1.1,3.1h-0.6
	l-1.1-3.1v3.1h-0.7V0H338.9L338.9,0z"/>
<g>
	<g>
		<path d="M347.9,40.3h6.3c7.2,0,11.5,3.9,11.5,11.7c0,7.8-4.3,11.9-11.3,11.9h-6.5V40.3z M353.9,60.4c4.7,0,7.5-2.7,7.5-8.5
			s-2.7-8.3-7.5-8.3H352v16.8H353.9z"/>
		<path d="M368.8,55c0-5.7,4-9.3,8.1-9.3c4.8,0,7.3,3.5,7.3,8.4c0,0.8-0.1,1.6-0.2,2h-11.2c0.3,3.1,2.4,4.9,5.2,4.9
			c1.5,0,2.8-0.5,4.1-1.3l1.4,2.6c-1.7,1.1-3.8,1.9-6.1,1.9C372.7,64.3,368.8,60.8,368.8,55z M380.7,53.3c0-2.7-1.2-4.4-3.6-4.4
			c-2.1,0-3.9,1.5-4.2,4.4H380.7z"/>
		<path d="M388.2,46.1h3.4L392,48h0.1c1.5-1.3,3.4-2.3,5.3-2.3c4.4,0,7,3.5,7,9c0,6-3.6,9.5-7.5,9.5c-1.6,0-3.1-0.7-4.5-1.9l0.1,2.9
			v5.6h-4.1V46.1z M400.1,54.8c0-3.5-1.2-5.6-3.8-5.6c-1.3,0-2.5,0.6-3.9,2v8.2c1.3,1.1,2.5,1.5,3.5,1.5
			C398.3,60.8,400.1,58.8,400.1,54.8z"/>
		<path d="M407.6,59.1c0-3.8,3.1-5.8,10.4-6.5c-0.1-1.9-0.8-3.5-3.2-3.5c-1.8,0-3.4,0.8-5,1.7l-1.5-2.8c1.9-1.2,4.4-2.3,7.3-2.3
			c4.4,0,6.6,2.7,6.6,7.6v10.5h-3.4l-0.3-2h-0.1c-1.6,1.4-3.4,2.4-5.5,2.4C409.7,64.3,407.6,62.2,407.6,59.1z M418,59.1v-4
			c-4.8,0.6-6.4,1.9-6.4,3.6c0,1.6,1.1,2.2,2.5,2.2C415.6,61,416.7,60.3,418,59.1z"/>
		<path d="M427.1,46.1h3.4l0.3,3.2h0.1c1.3-2.3,3.1-3.6,5-3.6c0.9,0,1.5,0.1,2,0.4l-0.7,3.6c-0.6-0.2-1.1-0.3-1.8-0.3
			c-1.4,0-3.1,1-4.2,3.7v10.8h-4.1V46.1z"/>
		<path d="M441.2,57.9v-8.4h-2.5v-3.1l2.7-0.2l0.5-4.8h3.4v4.8h4.5v3.3h-4.5v8.4c0,2.1,0.8,3.1,2.5,3.1c0.6,0,1.3-0.2,1.8-0.4
			l0.7,3.1c-1,0.3-2.2,0.6-3.6,0.6C442.7,64.3,441.2,61.7,441.2,57.9z"/>
		<path d="M453.6,46.1h3.4l0.3,2.4h0.1c1.5-1.6,3.2-2.8,5.4-2.8c2.6,0,4.1,1.2,4.9,3.2c1.7-1.8,3.4-3.2,5.7-3.2c3.7,0,5.5,2.6,5.5,7
			v11.1h-4.1V53.3c0-2.9-0.9-4-2.7-4c-1.1,0-2.3,0.7-3.7,2.2v12.4h-4.1V53.3c0-2.9-0.9-4-2.7-4c-1.1,0-2.3,0.7-3.7,2.2v12.4h-4.1
			V46.1z"/>
		<path d="M482.7,55c0-5.7,4-9.3,8.1-9.3c4.8,0,7.3,3.5,7.3,8.4c0,0.8-0.1,1.6-0.2,2h-11.2c0.3,3.1,2.4,4.9,5.2,4.9
			c1.5,0,2.8-0.5,4.1-1.3l1.4,2.6c-1.7,1.1-3.8,1.9-6.1,1.9C486.6,64.3,482.7,60.8,482.7,55z M494.6,53.3c0-2.7-1.2-4.4-3.6-4.4
			c-2.1,0-3.9,1.5-4.2,4.4H494.6z"/>
		<path d="M502.2,46.1h3.4l0.3,2.4h0.1c1.6-1.5,3.4-2.8,5.8-2.8c3.8,0,5.4,2.6,5.4,7v11.1h-4.1V53.3c0-2.9-0.8-4-2.8-4
			c-1.6,0-2.6,0.8-4,2.2v12.4h-4.1V46.1z"/>
		<path d="M522.9,57.9v-8.4h-2.5v-3.1l2.7-0.2l0.5-4.8h3.4v4.8h4.5v3.3h-4.5v8.4c0,2.1,0.8,3.1,2.5,3.1c0.6,0,1.3-0.2,1.8-0.4
			l0.7,3.1c-1,0.3-2.2,0.6-3.6,0.6C524.4,64.3,522.9,61.7,522.9,57.9z"/>
		<path d="M540.8,46.3l2.6-0.2h7.4v3.3h-10V46.3z M543.2,44.3c0-3.7,1.7-6.3,5.9-6.3c1.3,0,2.4,0.3,3.2,0.6l-0.8,3.1
			c-0.6-0.3-1.3-0.4-1.9-0.4c-1.5,0-2.2,0.9-2.2,3v19.6h-4.1V44.3z"/>
		<path d="M552.8,55c0-5.9,4-9.3,8.4-9.3c4.4,0,8.4,3.4,8.4,9.3c0,5.9-4,9.3-8.4,9.3C556.8,64.3,552.8,60.9,552.8,55z M565.3,55
			c0-3.5-1.6-5.9-4.1-5.9c-2.6,0-4.1,2.4-4.1,5.9s1.6,5.9,4.1,5.9C563.8,60.9,565.3,58.5,565.3,55z"/>
		<path d="M573.7,46.1h3.4l0.3,3.2h0.1c1.3-2.3,3.1-3.6,5-3.6c0.9,0,1.5,0.1,2,0.4l-0.7,3.6c-0.6-0.2-1.1-0.3-1.8-0.3
			c-1.4,0-3.1,1-4.2,3.7v10.8h-4.1V46.1z"/>
		<path d="M594.9,57.9v-8.4h-2.5v-3.1l2.7-0.2l0.5-4.8h3.4v4.8h4.5v3.3h-4.5v8.4c0,2.1,0.8,3.1,2.5,3.1c0.6,0,1.3-0.2,1.8-0.4
			l0.7,3.1c-1,0.3-2.2,0.6-3.6,0.6C596.4,64.3,594.9,61.7,594.9,57.9z"/>
		<path d="M607.3,38.4h4.1V45l-0.2,3.4c1.5-1.4,3.2-2.7,5.7-2.7c3.8,0,5.4,2.6,5.4,7v11.1h-4.1V53.3c0-2.9-0.8-4-2.8-4
			c-1.6,0-2.6,0.8-4,2.2v12.4h-4.1V38.4z"/>
		<path d="M626.2,55c0-5.7,4-9.3,8.1-9.3c4.8,0,7.3,3.5,7.3,8.4c0,0.8-0.1,1.6-0.2,2h-11.2c0.3,3.1,2.4,4.9,5.2,4.9
			c1.5,0,2.8-0.5,4.1-1.3l1.4,2.6c-1.7,1.1-3.8,1.9-6.1,1.9C630.1,64.3,626.2,60.8,626.2,55z M638.1,53.3c0-2.7-1.2-4.4-3.6-4.4
			c-2.1,0-3.9,1.5-4.2,4.4H638.1z"/>
		<path d="M347.9,83.5h7.4c5.2,0,9.1,1.8,9.1,7.3c0,5.2-3.9,7.6-9,7.6H352v8.7h-4.2V83.5z M355.1,95c3.5,0,5.2-1.4,5.2-4.3
			c0-2.9-1.8-3.9-5.3-3.9H352V95H355.1z"/>
		<path d="M368.4,89.3h3.4l0.3,3.2h0.1c1.3-2.3,3.1-3.6,5-3.6c0.9,0,1.5,0.1,2,0.4l-0.7,3.6c-0.6-0.2-1.1-0.3-1.8-0.3
			c-1.4,0-3.1,1-4.2,3.7V107h-4.1V89.3z"/>
		<path d="M380.7,98.2c0-5.9,4-9.3,8.4-9.3c4.4,0,8.4,3.4,8.4,9.3c0,5.9-4,9.3-8.4,9.3C384.7,107.5,380.7,104.1,380.7,98.2z
			 M393.3,98.2c0-3.5-1.6-5.9-4.1-5.9c-2.6,0-4.1,2.4-4.1,5.9s1.6,5.9,4.1,5.9C391.7,104.1,393.3,101.7,393.3,98.2z"/>
		<path d="M402.3,101.1v-8.4h-2.5v-3.1l2.7-0.2l0.5-4.8h3.4v4.8h4.5v3.3h-4.5v8.4c0,2.1,0.8,3.1,2.5,3.1c0.6,0,1.3-0.2,1.8-0.4
			l0.7,3.1c-1,0.3-2.2,0.6-3.6,0.6C403.8,107.5,402.3,104.9,402.3,101.1z"/>
		<path d="M413.5,98.2c0-5.7,4-9.3,8.1-9.3c4.8,0,7.3,3.5,7.3,8.4c0,0.8-0.1,1.6-0.2,2h-11.2c0.3,3.1,2.4,4.9,5.2,4.9
			c1.5,0,2.8-0.5,4.1-1.3l1.4,2.6c-1.7,1.1-3.8,1.9-6.1,1.9C417.3,107.5,413.5,104,413.5,98.2z M425.3,96.5c0-2.7-1.2-4.4-3.6-4.4
			c-2.1,0-3.9,1.5-4.2,4.4H425.3z"/>
		<path d="M431.7,98.2c0-5.9,4.2-9.3,8.9-9.3c2.2,0,3.9,0.9,5.2,2l-2,2.7c-0.9-0.8-1.8-1.3-2.9-1.3c-2.9,0-4.8,2.4-4.8,5.9
			s1.9,5.9,4.7,5.9c1.4,0,2.6-0.7,3.7-1.5l1.7,2.7c-1.7,1.5-3.8,2.2-5.8,2.2C435.4,107.5,431.7,104.1,431.7,98.2z"/>
		<path d="M450.1,101.1v-8.4h-2.5v-3.1l2.7-0.2l0.5-4.8h3.4v4.8h4.5v3.3h-4.5v8.4c0,2.1,0.8,3.1,2.5,3.1c0.6,0,1.3-0.2,1.8-0.4
			l0.7,3.1c-1,0.3-2.2,0.6-3.6,0.6C451.7,107.5,450.1,104.9,450.1,101.1z"/>
		<path d="M462,83.9c0-1.4,1.1-2.3,2.6-2.3s2.6,1,2.6,2.3c0,1.4-1.1,2.3-2.6,2.3S462,85.3,462,83.9z M462.5,89.3h4.1V107h-4.1V89.3z
			"/>
		<path d="M470.8,98.2c0-5.9,4-9.3,8.4-9.3c4.4,0,8.4,3.4,8.4,9.3c0,5.9-4,9.3-8.4,9.3C474.8,107.5,470.8,104.1,470.8,98.2z
			 M483.3,98.2c0-3.5-1.6-5.9-4.1-5.9c-2.6,0-4.1,2.4-4.1,5.9s1.6,5.9,4.1,5.9C481.8,104.1,483.3,101.7,483.3,98.2z"/>
		<path d="M491.7,89.3h3.4l0.3,2.4h0.1c1.6-1.5,3.4-2.8,5.8-2.8c3.8,0,5.4,2.6,5.4,7V107h-4.1V96.5c0-2.9-0.8-4-2.8-4
			c-1.6,0-2.6,0.8-4,2.2V107h-4.1V89.3z"/>
		<path d="M517.9,98.2c0-5.9,4-9.3,8.4-9.3c4.4,0,8.4,3.4,8.4,9.3c0,5.9-4,9.3-8.4,9.3C521.9,107.5,517.9,104.1,517.9,98.2z
			 M530.5,98.2c0-3.5-1.6-5.9-4.1-5.9c-2.6,0-4.1,2.4-4.1,5.9s1.6,5.9,4.1,5.9C528.9,104.1,530.5,101.7,530.5,98.2z"/>
		<path d="M537.2,89.5l2.6-0.2h7.4v3.3h-10V89.5z M539.5,87.5c0-3.7,1.7-6.3,5.9-6.3c1.3,0,2.4,0.3,3.2,0.6l-0.8,3.1
			c-0.6-0.3-1.3-0.4-1.9-0.4c-1.5,0-2.2,0.9-2.2,3V107h-4.1V87.5z"/>
		<path d="M557.8,83.5h7.4c5.2,0,9.1,1.8,9.1,7.3c0,5.2-3.9,7.6-9,7.6H562v8.7h-4.2V83.5z M565,95c3.5,0,5.2-1.4,5.2-4.3
			c0-2.9-1.8-3.9-5.3-3.9H562V95H565z"/>
		<path d="M577.2,98.2c0-5.7,4-9.3,8.1-9.3c4.8,0,7.3,3.5,7.3,8.4c0,0.8-0.1,1.6-0.2,2h-11.2c0.3,3.1,2.4,4.9,5.2,4.9
			c1.5,0,2.8-0.5,4.1-1.3l1.4,2.6c-1.7,1.1-3.8,1.9-6.1,1.9C581.1,107.5,577.2,104,577.2,98.2z M589.1,96.5c0-2.7-1.2-4.4-3.6-4.4
			c-2.1,0-3.9,1.5-4.2,4.4H589.1z"/>
		<path d="M597.3,101.1v-8.4h-2.5v-3.1l2.7-0.2l0.5-4.8h3.4v4.8h4.5v3.3h-4.5v8.4c0,2.1,0.8,3.1,2.5,3.1c0.6,0,1.3-0.2,1.8-0.4
			l0.7,3.1c-1,0.3-2.2,0.6-3.6,0.6C598.8,107.5,597.3,104.9,597.3,101.1z"/>
		<path d="M607.9,105l1.9-2.6c1.6,1.2,3.1,2,4.9,2c1.9,0,2.8-0.9,2.8-2.1c0-1.5-1.9-2.1-3.8-2.9c-2.3-0.9-5-2.2-5-5.2
			c0-3.1,2.5-5.3,6.4-5.3c2.5,0,4.4,1,5.9,2.1l-1.9,2.5c-1.2-0.9-2.5-1.5-3.9-1.5c-1.8,0-2.6,0.8-2.6,2c0,1.4,1.8,1.9,3.7,2.6
			c2.4,0.9,5.1,2,5.1,5.3c0,3-2.4,5.5-6.9,5.5C612.2,107.5,609.6,106.4,607.9,105z"/>
	</g>
</g>
</svg>
